<mxfile host="65bd71144e">
    <diagram id="xANOIl3aR0EAdP91JXvN" name="Page-1">
        <mxGraphModel dx="730" dy="464" grid="1" gridSize="10" guides="1" tooltips="1" connect="1" arrows="1" fold="1" page="1" pageScale="1" pageWidth="1169" pageHeight="827" background="#ffffff" math="0" shadow="0">
            <root>
                <mxCell id="0"/>
                <mxCell id="1" parent="0"/>
                <mxCell id="98" value="ROLE" style="shape=table;startSize=30;container=1;collapsible=0;childLayout=tableLayout;fontStyle=1;align=center;sketch=1;hachureGap=4;jiggle=2;curveFitting=1;fontFamily=Architects Daughter;fontSource=https%3A%2F%2Ffonts.googleapis.com%2Fcss%3Ffamily%3DArchitects%2BDaughter;fontSize=20;strokeColor=#000000;fillColor=#F0F0F0;fontColor=#000000;" parent="1" vertex="1">
                    <mxGeometry x="20" y="320" width="450" height="110" as="geometry"/>
                </mxCell>
                <mxCell id="99" value="" style="shape=tableRow;horizontal=0;startSize=0;swimlaneHead=0;swimlaneBody=0;top=0;left=0;bottom=0;right=0;collapsible=0;dropTarget=0;fillColor=none;points=[[0,0.5],[1,0.5]];portConstraint=eastwest;sketch=1;hachureGap=4;jiggle=2;curveFitting=1;fontFamily=Architects Daughter;fontSource=https%3A%2F%2Ffonts.googleapis.com%2Fcss%3Ffamily%3DArchitects%2BDaughter;fontSize=20;" parent="98" vertex="1">
                    <mxGeometry y="30" width="450" height="40" as="geometry"/>
                </mxCell>
                <mxCell id="100" value="&lt;span style=&quot;&quot;&gt;id&lt;/span&gt;" style="shape=partialRectangle;html=1;whiteSpace=wrap;connectable=0;fillColor=none;top=0;left=0;bottom=0;right=0;overflow=hidden;sketch=1;hachureGap=4;jiggle=2;curveFitting=1;fontFamily=Architects Daughter;fontSource=https%3A%2F%2Ffonts.googleapis.com%2Fcss%3Ffamily%3DArchitects%2BDaughter;fontSize=20;fontStyle=4;fontColor=#000000;" parent="99" vertex="1">
                    <mxGeometry width="95" height="40" as="geometry">
                        <mxRectangle width="95" height="40" as="alternateBounds"/>
                    </mxGeometry>
                </mxCell>
                <mxCell id="101" value="&lt;font color=&quot;#000000&quot;&gt;INT&lt;/font&gt;" style="shape=partialRectangle;html=1;whiteSpace=wrap;connectable=0;fillColor=none;top=0;left=0;bottom=0;right=0;overflow=hidden;sketch=1;hachureGap=4;jiggle=2;curveFitting=1;fontFamily=Architects Daughter;fontSource=https%3A%2F%2Ffonts.googleapis.com%2Fcss%3Ffamily%3DArchitects%2BDaughter;fontSize=20;" parent="99" vertex="1">
                    <mxGeometry x="95" width="95" height="40" as="geometry">
                        <mxRectangle width="95" height="40" as="alternateBounds"/>
                    </mxGeometry>
                </mxCell>
                <mxCell id="102" value="&lt;span style=&quot;color: rgb(0, 0, 0); font-size: 18px;&quot;&gt;UNIQUE NOT NULL&lt;/span&gt;" style="shape=partialRectangle;html=1;whiteSpace=wrap;connectable=0;fillColor=none;top=0;left=0;bottom=0;right=0;overflow=hidden;sketch=1;hachureGap=4;jiggle=2;curveFitting=1;fontFamily=Architects Daughter;fontSource=https%3A%2F%2Ffonts.googleapis.com%2Fcss%3Ffamily%3DArchitects%2BDaughter;fontSize=20;" parent="99" vertex="1">
                    <mxGeometry x="190" width="160" height="40" as="geometry">
                        <mxRectangle width="160" height="40" as="alternateBounds"/>
                    </mxGeometry>
                </mxCell>
                <mxCell id="404" value="&lt;span style=&quot;color: rgb(0, 0, 0);&quot;&gt;PK&lt;/span&gt;" style="shape=partialRectangle;html=1;whiteSpace=wrap;connectable=0;fillColor=none;top=0;left=0;bottom=0;right=0;overflow=hidden;sketch=1;hachureGap=4;jiggle=2;curveFitting=1;fontFamily=Architects Daughter;fontSource=https%3A%2F%2Ffonts.googleapis.com%2Fcss%3Ffamily%3DArchitects%2BDaughter;fontSize=20;" vertex="1" parent="99">
                    <mxGeometry x="350" width="100" height="40" as="geometry">
                        <mxRectangle width="100" height="40" as="alternateBounds"/>
                    </mxGeometry>
                </mxCell>
                <mxCell id="103" value="" style="shape=tableRow;horizontal=0;startSize=0;swimlaneHead=0;swimlaneBody=0;top=0;left=0;bottom=0;right=0;collapsible=0;dropTarget=0;fillColor=none;points=[[0,0.5],[1,0.5]];portConstraint=eastwest;sketch=1;hachureGap=4;jiggle=2;curveFitting=1;fontFamily=Architects Daughter;fontSource=https%3A%2F%2Ffonts.googleapis.com%2Fcss%3Ffamily%3DArchitects%2BDaughter;fontSize=20;" parent="98" vertex="1">
                    <mxGeometry y="70" width="450" height="40" as="geometry"/>
                </mxCell>
                <mxCell id="104" value="&lt;font color=&quot;#000000&quot;&gt;name&lt;/font&gt;" style="shape=partialRectangle;html=1;whiteSpace=wrap;connectable=0;fillColor=none;top=0;left=0;bottom=0;right=0;overflow=hidden;sketch=1;hachureGap=4;jiggle=2;curveFitting=1;fontFamily=Architects Daughter;fontSource=https%3A%2F%2Ffonts.googleapis.com%2Fcss%3Ffamily%3DArchitects%2BDaughter;fontSize=20;" parent="103" vertex="1">
                    <mxGeometry width="95" height="40" as="geometry">
                        <mxRectangle width="95" height="40" as="alternateBounds"/>
                    </mxGeometry>
                </mxCell>
                <mxCell id="105" value="&lt;span style=&quot;color: rgb(0, 0, 0);&quot;&gt;TEXT&lt;/span&gt;" style="shape=partialRectangle;html=1;whiteSpace=wrap;connectable=0;fillColor=none;top=0;left=0;bottom=0;right=0;overflow=hidden;sketch=1;hachureGap=4;jiggle=2;curveFitting=1;fontFamily=Architects Daughter;fontSource=https%3A%2F%2Ffonts.googleapis.com%2Fcss%3Ffamily%3DArchitects%2BDaughter;fontSize=20;" parent="103" vertex="1">
                    <mxGeometry x="95" width="95" height="40" as="geometry">
                        <mxRectangle width="95" height="40" as="alternateBounds"/>
                    </mxGeometry>
                </mxCell>
                <mxCell id="106" value="&lt;font color=&quot;#000000&quot;&gt;NOT NULL&lt;/font&gt;" style="shape=partialRectangle;html=1;whiteSpace=wrap;connectable=0;fillColor=none;top=0;left=0;bottom=0;right=0;overflow=hidden;sketch=1;hachureGap=4;jiggle=2;curveFitting=1;fontFamily=Architects Daughter;fontSource=https%3A%2F%2Ffonts.googleapis.com%2Fcss%3Ffamily%3DArchitects%2BDaughter;fontSize=20;" parent="103" vertex="1">
                    <mxGeometry x="190" width="160" height="40" as="geometry">
                        <mxRectangle width="160" height="40" as="alternateBounds"/>
                    </mxGeometry>
                </mxCell>
                <mxCell id="405" style="shape=partialRectangle;html=1;whiteSpace=wrap;connectable=0;fillColor=none;top=0;left=0;bottom=0;right=0;overflow=hidden;sketch=1;hachureGap=4;jiggle=2;curveFitting=1;fontFamily=Architects Daughter;fontSource=https%3A%2F%2Ffonts.googleapis.com%2Fcss%3Ffamily%3DArchitects%2BDaughter;fontSize=20;" vertex="1" parent="103">
                    <mxGeometry x="350" width="100" height="40" as="geometry">
                        <mxRectangle width="100" height="40" as="alternateBounds"/>
                    </mxGeometry>
                </mxCell>
                <mxCell id="115" value="USER" style="shape=table;startSize=30;container=1;collapsible=0;childLayout=tableLayout;fontStyle=1;align=center;sketch=1;hachureGap=4;jiggle=2;curveFitting=1;fontFamily=Architects Daughter;fontSource=https%3A%2F%2Ffonts.googleapis.com%2Fcss%3Ffamily%3DArchitects%2BDaughter;fontSize=20;strokeColor=#000000;fillColor=#F0F0F0;fontColor=#000000;" parent="1" vertex="1">
                    <mxGeometry x="750" y="50" width="627" height="270" as="geometry"/>
                </mxCell>
                <mxCell id="116" value="" style="shape=tableRow;horizontal=0;startSize=0;swimlaneHead=0;swimlaneBody=0;top=0;left=0;bottom=0;right=0;collapsible=0;dropTarget=0;fillColor=none;points=[[0,0.5],[1,0.5]];portConstraint=eastwest;sketch=1;hachureGap=4;jiggle=2;curveFitting=1;fontFamily=Architects Daughter;fontSource=https%3A%2F%2Ffonts.googleapis.com%2Fcss%3Ffamily%3DArchitects%2BDaughter;fontSize=20;" parent="115" vertex="1">
                    <mxGeometry y="30" width="627" height="40" as="geometry"/>
                </mxCell>
                <mxCell id="117" value="&lt;span style=&quot;&quot;&gt;id&lt;/span&gt;" style="shape=partialRectangle;html=1;whiteSpace=wrap;connectable=0;fillColor=none;top=0;left=0;bottom=0;right=0;overflow=hidden;sketch=1;hachureGap=4;jiggle=2;curveFitting=1;fontFamily=Architects Daughter;fontSource=https%3A%2F%2Ffonts.googleapis.com%2Fcss%3Ffamily%3DArchitects%2BDaughter;fontSize=20;fontStyle=4;fontColor=#000000;" parent="116" vertex="1">
                    <mxGeometry width="157" height="40" as="geometry">
                        <mxRectangle width="157" height="40" as="alternateBounds"/>
                    </mxGeometry>
                </mxCell>
                <mxCell id="118" value="&lt;font color=&quot;#000000&quot;&gt;INTEGER&lt;/font&gt;" style="shape=partialRectangle;html=1;whiteSpace=wrap;connectable=0;fillColor=none;top=0;left=0;bottom=0;right=0;overflow=hidden;sketch=1;hachureGap=4;jiggle=2;curveFitting=1;fontFamily=Architects Daughter;fontSource=https%3A%2F%2Ffonts.googleapis.com%2Fcss%3Ffamily%3DArchitects%2BDaughter;fontSize=20;" parent="116" vertex="1">
                    <mxGeometry x="157" width="156" height="40" as="geometry">
                        <mxRectangle width="156" height="40" as="alternateBounds"/>
                    </mxGeometry>
                </mxCell>
                <mxCell id="119" value="&lt;span style=&quot;color: rgb(0, 0, 0);&quot;&gt;UNIQUE&lt;/span&gt;" style="shape=partialRectangle;html=1;whiteSpace=wrap;connectable=0;fillColor=none;top=0;left=0;bottom=0;right=0;overflow=hidden;sketch=1;hachureGap=4;jiggle=2;curveFitting=1;fontFamily=Architects Daughter;fontSource=https%3A%2F%2Ffonts.googleapis.com%2Fcss%3Ffamily%3DArchitects%2BDaughter;fontSize=20;" parent="116" vertex="1">
                    <mxGeometry x="313" width="157" height="40" as="geometry">
                        <mxRectangle width="157" height="40" as="alternateBounds"/>
                    </mxGeometry>
                </mxCell>
                <mxCell id="393" value="&lt;span style=&quot;color: rgb(0, 0, 0);&quot;&gt;PK&lt;/span&gt;" style="shape=partialRectangle;html=1;whiteSpace=wrap;connectable=0;fillColor=none;top=0;left=0;bottom=0;right=0;overflow=hidden;sketch=1;hachureGap=4;jiggle=2;curveFitting=1;fontFamily=Architects Daughter;fontSource=https%3A%2F%2Ffonts.googleapis.com%2Fcss%3Ffamily%3DArchitects%2BDaughter;fontSize=20;" vertex="1" parent="116">
                    <mxGeometry x="470" width="157" height="40" as="geometry">
                        <mxRectangle width="157" height="40" as="alternateBounds"/>
                    </mxGeometry>
                </mxCell>
                <mxCell id="120" value="" style="shape=tableRow;horizontal=0;startSize=0;swimlaneHead=0;swimlaneBody=0;top=0;left=0;bottom=0;right=0;collapsible=0;dropTarget=0;fillColor=none;points=[[0,0.5],[1,0.5]];portConstraint=eastwest;sketch=1;hachureGap=4;jiggle=2;curveFitting=1;fontFamily=Architects Daughter;fontSource=https%3A%2F%2Ffonts.googleapis.com%2Fcss%3Ffamily%3DArchitects%2BDaughter;fontSize=20;" parent="115" vertex="1">
                    <mxGeometry y="70" width="627" height="40" as="geometry"/>
                </mxCell>
                <mxCell id="121" value="&lt;font color=&quot;#000000&quot;&gt;userName&lt;/font&gt;" style="shape=partialRectangle;html=1;whiteSpace=wrap;connectable=0;fillColor=none;top=0;left=0;bottom=0;right=0;overflow=hidden;sketch=1;hachureGap=4;jiggle=2;curveFitting=1;fontFamily=Architects Daughter;fontSource=https%3A%2F%2Ffonts.googleapis.com%2Fcss%3Ffamily%3DArchitects%2BDaughter;fontSize=20;" parent="120" vertex="1">
                    <mxGeometry width="157" height="40" as="geometry">
                        <mxRectangle width="157" height="40" as="alternateBounds"/>
                    </mxGeometry>
                </mxCell>
                <mxCell id="122" value="&lt;span style=&quot;color: rgb(0, 0, 0);&quot;&gt;TEXT&lt;/span&gt;" style="shape=partialRectangle;html=1;whiteSpace=wrap;connectable=0;fillColor=none;top=0;left=0;bottom=0;right=0;overflow=hidden;sketch=1;hachureGap=4;jiggle=2;curveFitting=1;fontFamily=Architects Daughter;fontSource=https%3A%2F%2Ffonts.googleapis.com%2Fcss%3Ffamily%3DArchitects%2BDaughter;fontSize=20;" parent="120" vertex="1">
                    <mxGeometry x="157" width="156" height="40" as="geometry">
                        <mxRectangle width="156" height="40" as="alternateBounds"/>
                    </mxGeometry>
                </mxCell>
                <mxCell id="123" value="&lt;font style=&quot;font-size: 18px;&quot; color=&quot;#000000&quot;&gt;UNIQUE NOT NULL&lt;/font&gt;" style="shape=partialRectangle;html=1;whiteSpace=wrap;connectable=0;fillColor=none;top=0;left=0;bottom=0;right=0;overflow=hidden;sketch=1;hachureGap=4;jiggle=2;curveFitting=1;fontFamily=Architects Daughter;fontSource=https%3A%2F%2Ffonts.googleapis.com%2Fcss%3Ffamily%3DArchitects%2BDaughter;fontSize=20;" parent="120" vertex="1">
                    <mxGeometry x="313" width="157" height="40" as="geometry">
                        <mxRectangle width="157" height="40" as="alternateBounds"/>
                    </mxGeometry>
                </mxCell>
                <mxCell id="394" style="shape=partialRectangle;html=1;whiteSpace=wrap;connectable=0;fillColor=none;top=0;left=0;bottom=0;right=0;overflow=hidden;sketch=1;hachureGap=4;jiggle=2;curveFitting=1;fontFamily=Architects Daughter;fontSource=https%3A%2F%2Ffonts.googleapis.com%2Fcss%3Ffamily%3DArchitects%2BDaughter;fontSize=20;" vertex="1" parent="120">
                    <mxGeometry x="470" width="157" height="40" as="geometry">
                        <mxRectangle width="157" height="40" as="alternateBounds"/>
                    </mxGeometry>
                </mxCell>
                <mxCell id="128" style="shape=tableRow;horizontal=0;startSize=0;swimlaneHead=0;swimlaneBody=0;top=0;left=0;bottom=0;right=0;collapsible=0;dropTarget=0;fillColor=none;points=[[0,0.5],[1,0.5]];portConstraint=eastwest;sketch=1;hachureGap=4;jiggle=2;curveFitting=1;fontFamily=Architects Daughter;fontSource=https%3A%2F%2Ffonts.googleapis.com%2Fcss%3Ffamily%3DArchitects%2BDaughter;fontSize=20;" parent="115" vertex="1">
                    <mxGeometry y="110" width="627" height="40" as="geometry"/>
                </mxCell>
                <mxCell id="129" value="&lt;font color=&quot;#000000&quot;&gt;email&lt;/font&gt;" style="shape=partialRectangle;html=1;whiteSpace=wrap;connectable=0;fillColor=none;top=0;left=0;bottom=0;right=0;overflow=hidden;sketch=1;hachureGap=4;jiggle=2;curveFitting=1;fontFamily=Architects Daughter;fontSource=https%3A%2F%2Ffonts.googleapis.com%2Fcss%3Ffamily%3DArchitects%2BDaughter;fontSize=20;" parent="128" vertex="1">
                    <mxGeometry width="157" height="40" as="geometry">
                        <mxRectangle width="157" height="40" as="alternateBounds"/>
                    </mxGeometry>
                </mxCell>
                <mxCell id="130" value="&lt;span style=&quot;color: rgb(0, 0, 0);&quot;&gt;TEXT&lt;/span&gt;" style="shape=partialRectangle;html=1;whiteSpace=wrap;connectable=0;fillColor=none;top=0;left=0;bottom=0;right=0;overflow=hidden;sketch=1;hachureGap=4;jiggle=2;curveFitting=1;fontFamily=Architects Daughter;fontSource=https%3A%2F%2Ffonts.googleapis.com%2Fcss%3Ffamily%3DArchitects%2BDaughter;fontSize=20;" parent="128" vertex="1">
                    <mxGeometry x="157" width="156" height="40" as="geometry">
                        <mxRectangle width="156" height="40" as="alternateBounds"/>
                    </mxGeometry>
                </mxCell>
                <mxCell id="131" value="&lt;span style=&quot;color: rgb(0, 0, 0); font-size: 18px;&quot;&gt;UNIQUE NOT NULL&lt;/span&gt;" style="shape=partialRectangle;html=1;whiteSpace=wrap;connectable=0;fillColor=none;top=0;left=0;bottom=0;right=0;overflow=hidden;sketch=1;hachureGap=4;jiggle=2;curveFitting=1;fontFamily=Architects Daughter;fontSource=https%3A%2F%2Ffonts.googleapis.com%2Fcss%3Ffamily%3DArchitects%2BDaughter;fontSize=20;" parent="128" vertex="1">
                    <mxGeometry x="313" width="157" height="40" as="geometry">
                        <mxRectangle width="157" height="40" as="alternateBounds"/>
                    </mxGeometry>
                </mxCell>
                <mxCell id="395" style="shape=partialRectangle;html=1;whiteSpace=wrap;connectable=0;fillColor=none;top=0;left=0;bottom=0;right=0;overflow=hidden;sketch=1;hachureGap=4;jiggle=2;curveFitting=1;fontFamily=Architects Daughter;fontSource=https%3A%2F%2Ffonts.googleapis.com%2Fcss%3Ffamily%3DArchitects%2BDaughter;fontSize=20;" vertex="1" parent="128">
                    <mxGeometry x="470" width="157" height="40" as="geometry">
                        <mxRectangle width="157" height="40" as="alternateBounds"/>
                    </mxGeometry>
                </mxCell>
                <mxCell id="132" style="shape=tableRow;horizontal=0;startSize=0;swimlaneHead=0;swimlaneBody=0;top=0;left=0;bottom=0;right=0;collapsible=0;dropTarget=0;fillColor=none;points=[[0,0.5],[1,0.5]];portConstraint=eastwest;sketch=1;hachureGap=4;jiggle=2;curveFitting=1;fontFamily=Architects Daughter;fontSource=https%3A%2F%2Ffonts.googleapis.com%2Fcss%3Ffamily%3DArchitects%2BDaughter;fontSize=20;" parent="115" vertex="1">
                    <mxGeometry y="150" width="627" height="40" as="geometry"/>
                </mxCell>
                <mxCell id="133" value="&lt;font color=&quot;#000000&quot;&gt;password&lt;/font&gt;" style="shape=partialRectangle;html=1;whiteSpace=wrap;connectable=0;fillColor=none;top=0;left=0;bottom=0;right=0;overflow=hidden;sketch=1;hachureGap=4;jiggle=2;curveFitting=1;fontFamily=Architects Daughter;fontSource=https%3A%2F%2Ffonts.googleapis.com%2Fcss%3Ffamily%3DArchitects%2BDaughter;fontSize=20;" parent="132" vertex="1">
                    <mxGeometry width="157" height="40" as="geometry">
                        <mxRectangle width="157" height="40" as="alternateBounds"/>
                    </mxGeometry>
                </mxCell>
                <mxCell id="134" value="&lt;font color=&quot;#000000&quot;&gt;TEXT&lt;/font&gt;" style="shape=partialRectangle;html=1;whiteSpace=wrap;connectable=0;fillColor=none;top=0;left=0;bottom=0;right=0;overflow=hidden;sketch=1;hachureGap=4;jiggle=2;curveFitting=1;fontFamily=Architects Daughter;fontSource=https%3A%2F%2Ffonts.googleapis.com%2Fcss%3Ffamily%3DArchitects%2BDaughter;fontSize=20;" parent="132" vertex="1">
                    <mxGeometry x="157" width="156" height="40" as="geometry">
                        <mxRectangle width="156" height="40" as="alternateBounds"/>
                    </mxGeometry>
                </mxCell>
                <mxCell id="135" value="&lt;span style=&quot;color: rgb(0, 0, 0);&quot;&gt;NOT NULL&lt;/span&gt;" style="shape=partialRectangle;html=1;whiteSpace=wrap;connectable=0;fillColor=none;top=0;left=0;bottom=0;right=0;overflow=hidden;sketch=1;hachureGap=4;jiggle=2;curveFitting=1;fontFamily=Architects Daughter;fontSource=https%3A%2F%2Ffonts.googleapis.com%2Fcss%3Ffamily%3DArchitects%2BDaughter;fontSize=20;" parent="132" vertex="1">
                    <mxGeometry x="313" width="157" height="40" as="geometry">
                        <mxRectangle width="157" height="40" as="alternateBounds"/>
                    </mxGeometry>
                </mxCell>
                <mxCell id="396" style="shape=partialRectangle;html=1;whiteSpace=wrap;connectable=0;fillColor=none;top=0;left=0;bottom=0;right=0;overflow=hidden;sketch=1;hachureGap=4;jiggle=2;curveFitting=1;fontFamily=Architects Daughter;fontSource=https%3A%2F%2Ffonts.googleapis.com%2Fcss%3Ffamily%3DArchitects%2BDaughter;fontSize=20;" vertex="1" parent="132">
                    <mxGeometry x="470" width="157" height="40" as="geometry">
                        <mxRectangle width="157" height="40" as="alternateBounds"/>
                    </mxGeometry>
                </mxCell>
                <mxCell id="364" style="shape=tableRow;horizontal=0;startSize=0;swimlaneHead=0;swimlaneBody=0;top=0;left=0;bottom=0;right=0;collapsible=0;dropTarget=0;fillColor=none;points=[[0,0.5],[1,0.5]];portConstraint=eastwest;sketch=1;hachureGap=4;jiggle=2;curveFitting=1;fontFamily=Architects Daughter;fontSource=https%3A%2F%2Ffonts.googleapis.com%2Fcss%3Ffamily%3DArchitects%2BDaughter;fontSize=20;" parent="115" vertex="1">
                    <mxGeometry y="190" width="627" height="40" as="geometry"/>
                </mxCell>
                <mxCell id="365" value="&lt;font color=&quot;#000000&quot;&gt;country_origin&lt;/font&gt;" style="shape=partialRectangle;html=1;whiteSpace=wrap;connectable=0;fillColor=none;top=0;left=0;bottom=0;right=0;overflow=hidden;sketch=1;hachureGap=4;jiggle=2;curveFitting=1;fontFamily=Architects Daughter;fontSource=https%3A%2F%2Ffonts.googleapis.com%2Fcss%3Ffamily%3DArchitects%2BDaughter;fontSize=20;" parent="364" vertex="1">
                    <mxGeometry width="157" height="40" as="geometry">
                        <mxRectangle width="157" height="40" as="alternateBounds"/>
                    </mxGeometry>
                </mxCell>
                <mxCell id="366" value="&lt;font color=&quot;#000000&quot;&gt;INT&lt;/font&gt;" style="shape=partialRectangle;html=1;whiteSpace=wrap;connectable=0;fillColor=none;top=0;left=0;bottom=0;right=0;overflow=hidden;sketch=1;hachureGap=4;jiggle=2;curveFitting=1;fontFamily=Architects Daughter;fontSource=https%3A%2F%2Ffonts.googleapis.com%2Fcss%3Ffamily%3DArchitects%2BDaughter;fontSize=20;" parent="364" vertex="1">
                    <mxGeometry x="157" width="156" height="40" as="geometry">
                        <mxRectangle width="156" height="40" as="alternateBounds"/>
                    </mxGeometry>
                </mxCell>
                <mxCell id="367" value="&lt;span style=&quot;color: rgb(0, 0, 0);&quot;&gt;NOT NULL&lt;/span&gt;" style="shape=partialRectangle;html=1;whiteSpace=wrap;connectable=0;fillColor=none;top=0;left=0;bottom=0;right=0;overflow=hidden;sketch=1;hachureGap=4;jiggle=2;curveFitting=1;fontFamily=Architects Daughter;fontSource=https%3A%2F%2Ffonts.googleapis.com%2Fcss%3Ffamily%3DArchitects%2BDaughter;fontSize=20;" parent="364" vertex="1">
                    <mxGeometry x="313" width="157" height="40" as="geometry">
                        <mxRectangle width="157" height="40" as="alternateBounds"/>
                    </mxGeometry>
                </mxCell>
                <mxCell id="397" value="&lt;span style=&quot;color: rgb(0, 0, 0);&quot;&gt;FK&lt;/span&gt;" style="shape=partialRectangle;html=1;whiteSpace=wrap;connectable=0;fillColor=none;top=0;left=0;bottom=0;right=0;overflow=hidden;sketch=1;hachureGap=4;jiggle=2;curveFitting=1;fontFamily=Architects Daughter;fontSource=https%3A%2F%2Ffonts.googleapis.com%2Fcss%3Ffamily%3DArchitects%2BDaughter;fontSize=20;" vertex="1" parent="364">
                    <mxGeometry x="470" width="157" height="40" as="geometry">
                        <mxRectangle width="157" height="40" as="alternateBounds"/>
                    </mxGeometry>
                </mxCell>
                <mxCell id="368" style="shape=tableRow;horizontal=0;startSize=0;swimlaneHead=0;swimlaneBody=0;top=0;left=0;bottom=0;right=0;collapsible=0;dropTarget=0;fillColor=none;points=[[0,0.5],[1,0.5]];portConstraint=eastwest;sketch=1;hachureGap=4;jiggle=2;curveFitting=1;fontFamily=Architects Daughter;fontSource=https%3A%2F%2Ffonts.googleapis.com%2Fcss%3Ffamily%3DArchitects%2BDaughter;fontSize=20;" parent="115" vertex="1">
                    <mxGeometry y="230" width="627" height="40" as="geometry"/>
                </mxCell>
                <mxCell id="369" value="&lt;font color=&quot;#000000&quot;&gt;birth_date&lt;/font&gt;" style="shape=partialRectangle;html=1;whiteSpace=wrap;connectable=0;fillColor=none;top=0;left=0;bottom=0;right=0;overflow=hidden;sketch=1;hachureGap=4;jiggle=2;curveFitting=1;fontFamily=Architects Daughter;fontSource=https%3A%2F%2Ffonts.googleapis.com%2Fcss%3Ffamily%3DArchitects%2BDaughter;fontSize=20;" parent="368" vertex="1">
                    <mxGeometry width="157" height="40" as="geometry">
                        <mxRectangle width="157" height="40" as="alternateBounds"/>
                    </mxGeometry>
                </mxCell>
                <mxCell id="370" value="&lt;font color=&quot;#000000&quot;&gt;TIMESTAMPTZ&lt;/font&gt;" style="shape=partialRectangle;html=1;whiteSpace=wrap;connectable=0;fillColor=none;top=0;left=0;bottom=0;right=0;overflow=hidden;sketch=1;hachureGap=4;jiggle=2;curveFitting=1;fontFamily=Architects Daughter;fontSource=https%3A%2F%2Ffonts.googleapis.com%2Fcss%3Ffamily%3DArchitects%2BDaughter;fontSize=20;" parent="368" vertex="1">
                    <mxGeometry x="157" width="156" height="40" as="geometry">
                        <mxRectangle width="156" height="40" as="alternateBounds"/>
                    </mxGeometry>
                </mxCell>
                <mxCell id="371" style="shape=partialRectangle;html=1;whiteSpace=wrap;connectable=0;fillColor=none;top=0;left=0;bottom=0;right=0;overflow=hidden;sketch=1;hachureGap=4;jiggle=2;curveFitting=1;fontFamily=Architects Daughter;fontSource=https%3A%2F%2Ffonts.googleapis.com%2Fcss%3Ffamily%3DArchitects%2BDaughter;fontSize=20;" parent="368" vertex="1">
                    <mxGeometry x="313" width="157" height="40" as="geometry">
                        <mxRectangle width="157" height="40" as="alternateBounds"/>
                    </mxGeometry>
                </mxCell>
                <mxCell id="398" style="shape=partialRectangle;html=1;whiteSpace=wrap;connectable=0;fillColor=none;top=0;left=0;bottom=0;right=0;overflow=hidden;sketch=1;hachureGap=4;jiggle=2;curveFitting=1;fontFamily=Architects Daughter;fontSource=https%3A%2F%2Ffonts.googleapis.com%2Fcss%3Ffamily%3DArchitects%2BDaughter;fontSize=20;" vertex="1" parent="368">
                    <mxGeometry x="470" width="157" height="40" as="geometry">
                        <mxRectangle width="157" height="40" as="alternateBounds"/>
                    </mxGeometry>
                </mxCell>
                <mxCell id="271" value="USER_HAS_ROLE" style="shape=table;startSize=30;container=1;collapsible=0;childLayout=tableLayout;fontStyle=1;align=center;sketch=1;hachureGap=4;jiggle=2;curveFitting=1;fontFamily=Architects Daughter;fontSource=https%3A%2F%2Ffonts.googleapis.com%2Fcss%3Ffamily%3DArchitects%2BDaughter;fontSize=20;strokeColor=#000000;fillColor=#F0F0F0;fontColor=#000000;" parent="1" vertex="1">
                    <mxGeometry x="10" y="20" width="473" height="150" as="geometry"/>
                </mxCell>
                <mxCell id="272" value="" style="shape=tableRow;horizontal=0;startSize=0;swimlaneHead=0;swimlaneBody=0;top=0;left=0;bottom=0;right=0;collapsible=0;dropTarget=0;fillColor=none;points=[[0,0.5],[1,0.5]];portConstraint=eastwest;sketch=1;hachureGap=4;jiggle=2;curveFitting=1;fontFamily=Architects Daughter;fontSource=https%3A%2F%2Ffonts.googleapis.com%2Fcss%3Ffamily%3DArchitects%2BDaughter;fontSize=20;" parent="271" vertex="1">
                    <mxGeometry y="30" width="473" height="40" as="geometry"/>
                </mxCell>
                <mxCell id="273" value="&lt;span style=&quot;&quot;&gt;id&lt;/span&gt;" style="shape=partialRectangle;html=1;whiteSpace=wrap;connectable=0;fillColor=none;top=0;left=0;bottom=0;right=0;overflow=hidden;sketch=1;hachureGap=4;jiggle=2;curveFitting=1;fontFamily=Architects Daughter;fontSource=https%3A%2F%2Ffonts.googleapis.com%2Fcss%3Ffamily%3DArchitects%2BDaughter;fontSize=20;fontStyle=4;fontColor=#000000;" parent="272" vertex="1">
                    <mxGeometry width="110" height="40" as="geometry">
                        <mxRectangle width="110" height="40" as="alternateBounds"/>
                    </mxGeometry>
                </mxCell>
                <mxCell id="274" value="&lt;font color=&quot;#000000&quot;&gt;INT&lt;/font&gt;" style="shape=partialRectangle;html=1;whiteSpace=wrap;connectable=0;fillColor=none;top=0;left=0;bottom=0;right=0;overflow=hidden;sketch=1;hachureGap=4;jiggle=2;curveFitting=1;fontFamily=Architects Daughter;fontSource=https%3A%2F%2Ffonts.googleapis.com%2Fcss%3Ffamily%3DArchitects%2BDaughter;fontSize=20;" parent="272" vertex="1">
                    <mxGeometry x="110" width="100" height="40" as="geometry">
                        <mxRectangle width="100" height="40" as="alternateBounds"/>
                    </mxGeometry>
                </mxCell>
                <mxCell id="275" value="&lt;span style=&quot;color: rgb(0, 0, 0); font-size: 18px;&quot;&gt;UNIQUE NOT NULL&lt;/span&gt;" style="shape=partialRectangle;html=1;whiteSpace=wrap;connectable=0;fillColor=none;top=0;left=0;bottom=0;right=0;overflow=hidden;sketch=1;hachureGap=4;jiggle=2;curveFitting=1;fontFamily=Architects Daughter;fontSource=https%3A%2F%2Ffonts.googleapis.com%2Fcss%3Ffamily%3DArchitects%2BDaughter;fontSize=20;" parent="272" vertex="1">
                    <mxGeometry x="210" width="160" height="40" as="geometry">
                        <mxRectangle width="160" height="40" as="alternateBounds"/>
                    </mxGeometry>
                </mxCell>
                <mxCell id="390" value="&lt;span style=&quot;color: rgb(0, 0, 0);&quot;&gt;PK&lt;/span&gt;" style="shape=partialRectangle;html=1;whiteSpace=wrap;connectable=0;fillColor=none;top=0;left=0;bottom=0;right=0;overflow=hidden;sketch=1;hachureGap=4;jiggle=2;curveFitting=1;fontFamily=Architects Daughter;fontSource=https%3A%2F%2Ffonts.googleapis.com%2Fcss%3Ffamily%3DArchitects%2BDaughter;fontSize=20;" vertex="1" parent="272">
                    <mxGeometry x="370" width="103" height="40" as="geometry">
                        <mxRectangle width="103" height="40" as="alternateBounds"/>
                    </mxGeometry>
                </mxCell>
                <mxCell id="276" value="" style="shape=tableRow;horizontal=0;startSize=0;swimlaneHead=0;swimlaneBody=0;top=0;left=0;bottom=0;right=0;collapsible=0;dropTarget=0;fillColor=none;points=[[0,0.5],[1,0.5]];portConstraint=eastwest;sketch=1;hachureGap=4;jiggle=2;curveFitting=1;fontFamily=Architects Daughter;fontSource=https%3A%2F%2Ffonts.googleapis.com%2Fcss%3Ffamily%3DArchitects%2BDaughter;fontSize=20;" parent="271" vertex="1">
                    <mxGeometry y="70" width="473" height="40" as="geometry"/>
                </mxCell>
                <mxCell id="277" value="&lt;font color=&quot;#000000&quot;&gt;user_id&lt;/font&gt;" style="shape=partialRectangle;html=1;whiteSpace=wrap;connectable=0;fillColor=none;top=0;left=0;bottom=0;right=0;overflow=hidden;sketch=1;hachureGap=4;jiggle=2;curveFitting=1;fontFamily=Architects Daughter;fontSource=https%3A%2F%2Ffonts.googleapis.com%2Fcss%3Ffamily%3DArchitects%2BDaughter;fontSize=20;" parent="276" vertex="1">
                    <mxGeometry width="110" height="40" as="geometry">
                        <mxRectangle width="110" height="40" as="alternateBounds"/>
                    </mxGeometry>
                </mxCell>
                <mxCell id="278" value="&lt;span style=&quot;color: rgb(0, 0, 0);&quot;&gt;INT&lt;/span&gt;" style="shape=partialRectangle;html=1;whiteSpace=wrap;connectable=0;fillColor=none;top=0;left=0;bottom=0;right=0;overflow=hidden;sketch=1;hachureGap=4;jiggle=2;curveFitting=1;fontFamily=Architects Daughter;fontSource=https%3A%2F%2Ffonts.googleapis.com%2Fcss%3Ffamily%3DArchitects%2BDaughter;fontSize=20;" parent="276" vertex="1">
                    <mxGeometry x="110" width="100" height="40" as="geometry">
                        <mxRectangle width="100" height="40" as="alternateBounds"/>
                    </mxGeometry>
                </mxCell>
                <mxCell id="279" value="&lt;font color=&quot;#000000&quot;&gt;NOT NULL&lt;/font&gt;" style="shape=partialRectangle;html=1;whiteSpace=wrap;connectable=0;fillColor=none;top=0;left=0;bottom=0;right=0;overflow=hidden;sketch=1;hachureGap=4;jiggle=2;curveFitting=1;fontFamily=Architects Daughter;fontSource=https%3A%2F%2Ffonts.googleapis.com%2Fcss%3Ffamily%3DArchitects%2BDaughter;fontSize=20;" parent="276" vertex="1">
                    <mxGeometry x="210" width="160" height="40" as="geometry">
                        <mxRectangle width="160" height="40" as="alternateBounds"/>
                    </mxGeometry>
                </mxCell>
                <mxCell id="391" value="&lt;span style=&quot;color: rgb(0, 0, 0);&quot;&gt;FK&lt;/span&gt;" style="shape=partialRectangle;html=1;whiteSpace=wrap;connectable=0;fillColor=none;top=0;left=0;bottom=0;right=0;overflow=hidden;sketch=1;hachureGap=4;jiggle=2;curveFitting=1;fontFamily=Architects Daughter;fontSource=https%3A%2F%2Ffonts.googleapis.com%2Fcss%3Ffamily%3DArchitects%2BDaughter;fontSize=20;" vertex="1" parent="276">
                    <mxGeometry x="370" width="103" height="40" as="geometry">
                        <mxRectangle width="103" height="40" as="alternateBounds"/>
                    </mxGeometry>
                </mxCell>
                <mxCell id="280" style="shape=tableRow;horizontal=0;startSize=0;swimlaneHead=0;swimlaneBody=0;top=0;left=0;bottom=0;right=0;collapsible=0;dropTarget=0;fillColor=none;points=[[0,0.5],[1,0.5]];portConstraint=eastwest;sketch=1;hachureGap=4;jiggle=2;curveFitting=1;fontFamily=Architects Daughter;fontSource=https%3A%2F%2Ffonts.googleapis.com%2Fcss%3Ffamily%3DArchitects%2BDaughter;fontSize=20;" parent="271" vertex="1">
                    <mxGeometry y="110" width="473" height="40" as="geometry"/>
                </mxCell>
                <mxCell id="281" value="&lt;font color=&quot;#000000&quot;&gt;role_id&lt;/font&gt;" style="shape=partialRectangle;html=1;whiteSpace=wrap;connectable=0;fillColor=none;top=0;left=0;bottom=0;right=0;overflow=hidden;sketch=1;hachureGap=4;jiggle=2;curveFitting=1;fontFamily=Architects Daughter;fontSource=https%3A%2F%2Ffonts.googleapis.com%2Fcss%3Ffamily%3DArchitects%2BDaughter;fontSize=20;" parent="280" vertex="1">
                    <mxGeometry width="110" height="40" as="geometry">
                        <mxRectangle width="110" height="40" as="alternateBounds"/>
                    </mxGeometry>
                </mxCell>
                <mxCell id="282" value="&lt;span style=&quot;color: rgb(0, 0, 0);&quot;&gt;INT&lt;/span&gt;" style="shape=partialRectangle;html=1;whiteSpace=wrap;connectable=0;fillColor=none;top=0;left=0;bottom=0;right=0;overflow=hidden;sketch=1;hachureGap=4;jiggle=2;curveFitting=1;fontFamily=Architects Daughter;fontSource=https%3A%2F%2Ffonts.googleapis.com%2Fcss%3Ffamily%3DArchitects%2BDaughter;fontSize=20;" parent="280" vertex="1">
                    <mxGeometry x="110" width="100" height="40" as="geometry">
                        <mxRectangle width="100" height="40" as="alternateBounds"/>
                    </mxGeometry>
                </mxCell>
                <mxCell id="283" value="&lt;span style=&quot;color: rgb(0, 0, 0);&quot;&gt;NOT NULL&lt;/span&gt;" style="shape=partialRectangle;html=1;whiteSpace=wrap;connectable=0;fillColor=none;top=0;left=0;bottom=0;right=0;overflow=hidden;sketch=1;hachureGap=4;jiggle=2;curveFitting=1;fontFamily=Architects Daughter;fontSource=https%3A%2F%2Ffonts.googleapis.com%2Fcss%3Ffamily%3DArchitects%2BDaughter;fontSize=20;" parent="280" vertex="1">
                    <mxGeometry x="210" width="160" height="40" as="geometry">
                        <mxRectangle width="160" height="40" as="alternateBounds"/>
                    </mxGeometry>
                </mxCell>
                <mxCell id="392" value="&lt;span style=&quot;color: rgb(0, 0, 0);&quot;&gt;FK&lt;/span&gt;" style="shape=partialRectangle;html=1;whiteSpace=wrap;connectable=0;fillColor=none;top=0;left=0;bottom=0;right=0;overflow=hidden;sketch=1;hachureGap=4;jiggle=2;curveFitting=1;fontFamily=Architects Daughter;fontSource=https%3A%2F%2Ffonts.googleapis.com%2Fcss%3Ffamily%3DArchitects%2BDaughter;fontSize=20;" vertex="1" parent="280">
                    <mxGeometry x="370" width="103" height="40" as="geometry">
                        <mxRectangle width="103" height="40" as="alternateBounds"/>
                    </mxGeometry>
                </mxCell>
                <mxCell id="290" value="AUTHORISATION" style="shape=table;startSize=30;container=1;collapsible=0;childLayout=tableLayout;fontStyle=1;align=center;sketch=1;hachureGap=4;jiggle=2;curveFitting=1;fontFamily=Architects Daughter;fontSource=https%3A%2F%2Ffonts.googleapis.com%2Fcss%3Ffamily%3DArchitects%2BDaughter;fontSize=20;strokeColor=#000000;fillColor=#F0F0F0;fontColor=#000000;" parent="1" vertex="1">
                    <mxGeometry x="60" y="810" width="430" height="110" as="geometry"/>
                </mxCell>
                <mxCell id="291" value="" style="shape=tableRow;horizontal=0;startSize=0;swimlaneHead=0;swimlaneBody=0;top=0;left=0;bottom=0;right=0;collapsible=0;dropTarget=0;fillColor=none;points=[[0,0.5],[1,0.5]];portConstraint=eastwest;sketch=1;hachureGap=4;jiggle=2;curveFitting=1;fontFamily=Architects Daughter;fontSource=https%3A%2F%2Ffonts.googleapis.com%2Fcss%3Ffamily%3DArchitects%2BDaughter;fontSize=20;" parent="290" vertex="1">
                    <mxGeometry y="30" width="430" height="40" as="geometry"/>
                </mxCell>
                <mxCell id="292" value="&lt;span style=&quot;&quot;&gt;id&lt;/span&gt;" style="shape=partialRectangle;html=1;whiteSpace=wrap;connectable=0;fillColor=none;top=0;left=0;bottom=0;right=0;overflow=hidden;sketch=1;hachureGap=4;jiggle=2;curveFitting=1;fontFamily=Architects Daughter;fontSource=https%3A%2F%2Ffonts.googleapis.com%2Fcss%3Ffamily%3DArchitects%2BDaughter;fontSize=20;fontStyle=4;fontColor=#000000;" parent="291" vertex="1">
                    <mxGeometry width="95" height="40" as="geometry">
                        <mxRectangle width="95" height="40" as="alternateBounds"/>
                    </mxGeometry>
                </mxCell>
                <mxCell id="293" value="&lt;span style=&quot;color: rgb(0, 0, 0);&quot;&gt;INT&lt;/span&gt;" style="shape=partialRectangle;html=1;whiteSpace=wrap;connectable=0;fillColor=none;top=0;left=0;bottom=0;right=0;overflow=hidden;sketch=1;hachureGap=4;jiggle=2;curveFitting=1;fontFamily=Architects Daughter;fontSource=https%3A%2F%2Ffonts.googleapis.com%2Fcss%3Ffamily%3DArchitects%2BDaughter;fontSize=20;" parent="291" vertex="1">
                    <mxGeometry x="95" width="75" height="40" as="geometry">
                        <mxRectangle width="75" height="40" as="alternateBounds"/>
                    </mxGeometry>
                </mxCell>
                <mxCell id="294" value="&lt;span style=&quot;color: rgb(0, 0, 0); font-size: 18px;&quot;&gt;UNIQUE NOT NULL&lt;/span&gt;" style="shape=partialRectangle;html=1;whiteSpace=wrap;connectable=0;fillColor=none;top=0;left=0;bottom=0;right=0;overflow=hidden;sketch=1;hachureGap=4;jiggle=2;curveFitting=1;fontFamily=Architects Daughter;fontSource=https%3A%2F%2Ffonts.googleapis.com%2Fcss%3Ffamily%3DArchitects%2BDaughter;fontSize=20;" parent="291" vertex="1">
                    <mxGeometry x="170" width="160" height="40" as="geometry">
                        <mxRectangle width="160" height="40" as="alternateBounds"/>
                    </mxGeometry>
                </mxCell>
                <mxCell id="402" value="&lt;span style=&quot;color: rgb(0, 0, 0);&quot;&gt;PK&lt;/span&gt;" style="shape=partialRectangle;html=1;whiteSpace=wrap;connectable=0;fillColor=none;top=0;left=0;bottom=0;right=0;overflow=hidden;sketch=1;hachureGap=4;jiggle=2;curveFitting=1;fontFamily=Architects Daughter;fontSource=https%3A%2F%2Ffonts.googleapis.com%2Fcss%3Ffamily%3DArchitects%2BDaughter;fontSize=20;" vertex="1" parent="291">
                    <mxGeometry x="330" width="100" height="40" as="geometry">
                        <mxRectangle width="100" height="40" as="alternateBounds"/>
                    </mxGeometry>
                </mxCell>
                <mxCell id="295" value="" style="shape=tableRow;horizontal=0;startSize=0;swimlaneHead=0;swimlaneBody=0;top=0;left=0;bottom=0;right=0;collapsible=0;dropTarget=0;fillColor=none;points=[[0,0.5],[1,0.5]];portConstraint=eastwest;sketch=1;hachureGap=4;jiggle=2;curveFitting=1;fontFamily=Architects Daughter;fontSource=https%3A%2F%2Ffonts.googleapis.com%2Fcss%3Ffamily%3DArchitects%2BDaughter;fontSize=20;" parent="290" vertex="1">
                    <mxGeometry y="70" width="430" height="40" as="geometry"/>
                </mxCell>
                <mxCell id="296" value="&lt;font color=&quot;#000000&quot;&gt;name&lt;/font&gt;" style="shape=partialRectangle;html=1;whiteSpace=wrap;connectable=0;fillColor=none;top=0;left=0;bottom=0;right=0;overflow=hidden;sketch=1;hachureGap=4;jiggle=2;curveFitting=1;fontFamily=Architects Daughter;fontSource=https%3A%2F%2Ffonts.googleapis.com%2Fcss%3Ffamily%3DArchitects%2BDaughter;fontSize=20;" parent="295" vertex="1">
                    <mxGeometry width="95" height="40" as="geometry">
                        <mxRectangle width="95" height="40" as="alternateBounds"/>
                    </mxGeometry>
                </mxCell>
                <mxCell id="297" value="&lt;span style=&quot;color: rgb(0, 0, 0);&quot;&gt;TEXT&lt;/span&gt;" style="shape=partialRectangle;html=1;whiteSpace=wrap;connectable=0;fillColor=none;top=0;left=0;bottom=0;right=0;overflow=hidden;sketch=1;hachureGap=4;jiggle=2;curveFitting=1;fontFamily=Architects Daughter;fontSource=https%3A%2F%2Ffonts.googleapis.com%2Fcss%3Ffamily%3DArchitects%2BDaughter;fontSize=20;" parent="295" vertex="1">
                    <mxGeometry x="95" width="75" height="40" as="geometry">
                        <mxRectangle width="75" height="40" as="alternateBounds"/>
                    </mxGeometry>
                </mxCell>
                <mxCell id="298" value="&lt;span style=&quot;color: rgb(0, 0, 0);&quot;&gt;NOT NULL&lt;/span&gt;" style="shape=partialRectangle;html=1;whiteSpace=wrap;connectable=0;fillColor=none;top=0;left=0;bottom=0;right=0;overflow=hidden;sketch=1;hachureGap=4;jiggle=2;curveFitting=1;fontFamily=Architects Daughter;fontSource=https%3A%2F%2Ffonts.googleapis.com%2Fcss%3Ffamily%3DArchitects%2BDaughter;fontSize=20;" parent="295" vertex="1">
                    <mxGeometry x="170" width="160" height="40" as="geometry">
                        <mxRectangle width="160" height="40" as="alternateBounds"/>
                    </mxGeometry>
                </mxCell>
                <mxCell id="403" style="shape=partialRectangle;html=1;whiteSpace=wrap;connectable=0;fillColor=none;top=0;left=0;bottom=0;right=0;overflow=hidden;sketch=1;hachureGap=4;jiggle=2;curveFitting=1;fontFamily=Architects Daughter;fontSource=https%3A%2F%2Ffonts.googleapis.com%2Fcss%3Ffamily%3DArchitects%2BDaughter;fontSize=20;" vertex="1" parent="295">
                    <mxGeometry x="330" width="100" height="40" as="geometry">
                        <mxRectangle width="100" height="40" as="alternateBounds"/>
                    </mxGeometry>
                </mxCell>
                <mxCell id="299" value="ROLE_HAS_AUTHORISATION" style="shape=table;startSize=30;container=1;collapsible=0;childLayout=tableLayout;fontStyle=1;align=center;sketch=1;hachureGap=4;jiggle=2;curveFitting=1;fontFamily=Architects Daughter;fontSource=https%3A%2F%2Ffonts.googleapis.com%2Fcss%3Ffamily%3DArchitects%2BDaughter;fontSize=20;strokeColor=#000000;fillColor=#F0F0F0;fontColor=#000000;" parent="1" vertex="1">
                    <mxGeometry x="120" y="560" width="493" height="150" as="geometry"/>
                </mxCell>
                <mxCell id="300" value="" style="shape=tableRow;horizontal=0;startSize=0;swimlaneHead=0;swimlaneBody=0;top=0;left=0;bottom=0;right=0;collapsible=0;dropTarget=0;fillColor=none;points=[[0,0.5],[1,0.5]];portConstraint=eastwest;sketch=1;hachureGap=4;jiggle=2;curveFitting=1;fontFamily=Architects Daughter;fontSource=https%3A%2F%2Ffonts.googleapis.com%2Fcss%3Ffamily%3DArchitects%2BDaughter;fontSize=20;" parent="299" vertex="1">
                    <mxGeometry y="30" width="493" height="40" as="geometry"/>
                </mxCell>
                <mxCell id="301" value="&lt;span style=&quot;&quot;&gt;id&lt;/span&gt;" style="shape=partialRectangle;html=1;whiteSpace=wrap;connectable=0;fillColor=none;top=0;left=0;bottom=0;right=0;overflow=hidden;sketch=1;hachureGap=4;jiggle=2;curveFitting=1;fontFamily=Architects Daughter;fontSource=https%3A%2F%2Ffonts.googleapis.com%2Fcss%3Ffamily%3DArchitects%2BDaughter;fontSize=20;fontStyle=4;fontColor=#000000;" parent="300" vertex="1">
                    <mxGeometry width="123" height="40" as="geometry">
                        <mxRectangle width="123" height="40" as="alternateBounds"/>
                    </mxGeometry>
                </mxCell>
                <mxCell id="302" value="&lt;span style=&quot;color: rgb(0, 0, 0);&quot;&gt;INT&lt;/span&gt;" style="shape=partialRectangle;html=1;whiteSpace=wrap;connectable=0;fillColor=none;top=0;left=0;bottom=0;right=0;overflow=hidden;sketch=1;hachureGap=4;jiggle=2;curveFitting=1;fontFamily=Architects Daughter;fontSource=https%3A%2F%2Ffonts.googleapis.com%2Fcss%3Ffamily%3DArchitects%2BDaughter;fontSize=20;" parent="300" vertex="1">
                    <mxGeometry x="123" width="107" height="40" as="geometry">
                        <mxRectangle width="107" height="40" as="alternateBounds"/>
                    </mxGeometry>
                </mxCell>
                <mxCell id="303" value="&lt;span style=&quot;color: rgb(0, 0, 0); font-size: 18px;&quot;&gt;UNIQUE NOT NULL&lt;/span&gt;" style="shape=partialRectangle;html=1;whiteSpace=wrap;connectable=0;fillColor=none;top=0;left=0;bottom=0;right=0;overflow=hidden;sketch=1;hachureGap=4;jiggle=2;curveFitting=1;fontFamily=Architects Daughter;fontSource=https%3A%2F%2Ffonts.googleapis.com%2Fcss%3Ffamily%3DArchitects%2BDaughter;fontSize=20;" parent="300" vertex="1">
                    <mxGeometry x="230" width="160" height="40" as="geometry">
                        <mxRectangle width="160" height="40" as="alternateBounds"/>
                    </mxGeometry>
                </mxCell>
                <mxCell id="399" value="&lt;span style=&quot;color: rgb(0, 0, 0);&quot;&gt;PK&lt;/span&gt;" style="shape=partialRectangle;html=1;whiteSpace=wrap;connectable=0;fillColor=none;top=0;left=0;bottom=0;right=0;overflow=hidden;sketch=1;hachureGap=4;jiggle=2;curveFitting=1;fontFamily=Architects Daughter;fontSource=https%3A%2F%2Ffonts.googleapis.com%2Fcss%3Ffamily%3DArchitects%2BDaughter;fontSize=20;" vertex="1" parent="300">
                    <mxGeometry x="390" width="103" height="40" as="geometry">
                        <mxRectangle width="103" height="40" as="alternateBounds"/>
                    </mxGeometry>
                </mxCell>
                <mxCell id="304" value="" style="shape=tableRow;horizontal=0;startSize=0;swimlaneHead=0;swimlaneBody=0;top=0;left=0;bottom=0;right=0;collapsible=0;dropTarget=0;fillColor=none;points=[[0,0.5],[1,0.5]];portConstraint=eastwest;sketch=1;hachureGap=4;jiggle=2;curveFitting=1;fontFamily=Architects Daughter;fontSource=https%3A%2F%2Ffonts.googleapis.com%2Fcss%3Ffamily%3DArchitects%2BDaughter;fontSize=20;" parent="299" vertex="1">
                    <mxGeometry y="70" width="493" height="40" as="geometry"/>
                </mxCell>
                <mxCell id="305" value="&lt;font color=&quot;#000000&quot;&gt;role_id&lt;/font&gt;" style="shape=partialRectangle;html=1;whiteSpace=wrap;connectable=0;fillColor=none;top=0;left=0;bottom=0;right=0;overflow=hidden;sketch=1;hachureGap=4;jiggle=2;curveFitting=1;fontFamily=Architects Daughter;fontSource=https%3A%2F%2Ffonts.googleapis.com%2Fcss%3Ffamily%3DArchitects%2BDaughter;fontSize=20;" parent="304" vertex="1">
                    <mxGeometry width="123" height="40" as="geometry">
                        <mxRectangle width="123" height="40" as="alternateBounds"/>
                    </mxGeometry>
                </mxCell>
                <mxCell id="306" value="&lt;span style=&quot;color: rgb(0, 0, 0);&quot;&gt;INT&lt;/span&gt;" style="shape=partialRectangle;html=1;whiteSpace=wrap;connectable=0;fillColor=none;top=0;left=0;bottom=0;right=0;overflow=hidden;sketch=1;hachureGap=4;jiggle=2;curveFitting=1;fontFamily=Architects Daughter;fontSource=https%3A%2F%2Ffonts.googleapis.com%2Fcss%3Ffamily%3DArchitects%2BDaughter;fontSize=20;" parent="304" vertex="1">
                    <mxGeometry x="123" width="107" height="40" as="geometry">
                        <mxRectangle width="107" height="40" as="alternateBounds"/>
                    </mxGeometry>
                </mxCell>
                <mxCell id="307" value="&lt;font color=&quot;#000000&quot;&gt;NOT NULL&lt;/font&gt;" style="shape=partialRectangle;html=1;whiteSpace=wrap;connectable=0;fillColor=none;top=0;left=0;bottom=0;right=0;overflow=hidden;sketch=1;hachureGap=4;jiggle=2;curveFitting=1;fontFamily=Architects Daughter;fontSource=https%3A%2F%2Ffonts.googleapis.com%2Fcss%3Ffamily%3DArchitects%2BDaughter;fontSize=20;" parent="304" vertex="1">
                    <mxGeometry x="230" width="160" height="40" as="geometry">
                        <mxRectangle width="160" height="40" as="alternateBounds"/>
                    </mxGeometry>
                </mxCell>
                <mxCell id="400" value="&lt;span style=&quot;color: rgb(0, 0, 0);&quot;&gt;FK&lt;/span&gt;" style="shape=partialRectangle;html=1;whiteSpace=wrap;connectable=0;fillColor=none;top=0;left=0;bottom=0;right=0;overflow=hidden;sketch=1;hachureGap=4;jiggle=2;curveFitting=1;fontFamily=Architects Daughter;fontSource=https%3A%2F%2Ffonts.googleapis.com%2Fcss%3Ffamily%3DArchitects%2BDaughter;fontSize=20;" vertex="1" parent="304">
                    <mxGeometry x="390" width="103" height="40" as="geometry">
                        <mxRectangle width="103" height="40" as="alternateBounds"/>
                    </mxGeometry>
                </mxCell>
                <mxCell id="308" style="shape=tableRow;horizontal=0;startSize=0;swimlaneHead=0;swimlaneBody=0;top=0;left=0;bottom=0;right=0;collapsible=0;dropTarget=0;fillColor=none;points=[[0,0.5],[1,0.5]];portConstraint=eastwest;sketch=1;hachureGap=4;jiggle=2;curveFitting=1;fontFamily=Architects Daughter;fontSource=https%3A%2F%2Ffonts.googleapis.com%2Fcss%3Ffamily%3DArchitects%2BDaughter;fontSize=20;" parent="299" vertex="1">
                    <mxGeometry y="110" width="493" height="40" as="geometry"/>
                </mxCell>
                <mxCell id="309" value="&lt;font color=&quot;#000000&quot;&gt;authorisation_id&lt;/font&gt;" style="shape=partialRectangle;html=1;whiteSpace=wrap;connectable=0;fillColor=none;top=0;left=0;bottom=0;right=0;overflow=hidden;sketch=1;hachureGap=4;jiggle=2;curveFitting=1;fontFamily=Architects Daughter;fontSource=https%3A%2F%2Ffonts.googleapis.com%2Fcss%3Ffamily%3DArchitects%2BDaughter;fontSize=20;" parent="308" vertex="1">
                    <mxGeometry width="123" height="40" as="geometry">
                        <mxRectangle width="123" height="40" as="alternateBounds"/>
                    </mxGeometry>
                </mxCell>
                <mxCell id="310" value="&lt;span style=&quot;color: rgb(0, 0, 0);&quot;&gt;INT&lt;/span&gt;" style="shape=partialRectangle;html=1;whiteSpace=wrap;connectable=0;fillColor=none;top=0;left=0;bottom=0;right=0;overflow=hidden;sketch=1;hachureGap=4;jiggle=2;curveFitting=1;fontFamily=Architects Daughter;fontSource=https%3A%2F%2Ffonts.googleapis.com%2Fcss%3Ffamily%3DArchitects%2BDaughter;fontSize=20;" parent="308" vertex="1">
                    <mxGeometry x="123" width="107" height="40" as="geometry">
                        <mxRectangle width="107" height="40" as="alternateBounds"/>
                    </mxGeometry>
                </mxCell>
                <mxCell id="311" value="&lt;span style=&quot;color: rgb(0, 0, 0);&quot;&gt;NOT NULL&lt;/span&gt;" style="shape=partialRectangle;html=1;whiteSpace=wrap;connectable=0;fillColor=none;top=0;left=0;bottom=0;right=0;overflow=hidden;sketch=1;hachureGap=4;jiggle=2;curveFitting=1;fontFamily=Architects Daughter;fontSource=https%3A%2F%2Ffonts.googleapis.com%2Fcss%3Ffamily%3DArchitects%2BDaughter;fontSize=20;" parent="308" vertex="1">
                    <mxGeometry x="230" width="160" height="40" as="geometry">
                        <mxRectangle width="160" height="40" as="alternateBounds"/>
                    </mxGeometry>
                </mxCell>
                <mxCell id="401" value="&lt;span style=&quot;color: rgb(0, 0, 0);&quot;&gt;FK&lt;/span&gt;" style="shape=partialRectangle;html=1;whiteSpace=wrap;connectable=0;fillColor=none;top=0;left=0;bottom=0;right=0;overflow=hidden;sketch=1;hachureGap=4;jiggle=2;curveFitting=1;fontFamily=Architects Daughter;fontSource=https%3A%2F%2Ffonts.googleapis.com%2Fcss%3Ffamily%3DArchitects%2BDaughter;fontSize=20;" vertex="1" parent="308">
                    <mxGeometry x="390" width="103" height="40" as="geometry">
                        <mxRectangle width="103" height="40" as="alternateBounds"/>
                    </mxGeometry>
                </mxCell>
                <mxCell id="312" value="" style="shape=flexArrow;endArrow=classic;html=1;strokeColor=#000000;sketch=1;curveFitting=1;jiggle=2;startArrow=none;" parent="1" source="316" target="115" edge="1">
                    <mxGeometry width="50" height="50" relative="1" as="geometry">
                        <mxPoint x="470" y="230" as="sourcePoint"/>
                        <mxPoint x="520" y="180" as="targetPoint"/>
                    </mxGeometry>
                </mxCell>
                <mxCell id="313" value="" style="shape=flexArrow;endArrow=classic;html=1;strokeColor=#000000;sketch=1;curveFitting=1;jiggle=2;startArrow=none;" parent="1" source="317" target="98" edge="1">
                    <mxGeometry width="50" height="50" relative="1" as="geometry">
                        <mxPoint x="520.4" y="260" as="sourcePoint"/>
                        <mxPoint x="450" y="180" as="targetPoint"/>
                    </mxGeometry>
                </mxCell>
                <mxCell id="314" value="" style="shape=flexArrow;endArrow=classic;html=1;strokeColor=#000000;sketch=1;curveFitting=1;jiggle=2;startArrow=none;" parent="1" source="318" target="290" edge="1">
                    <mxGeometry width="50" height="50" relative="1" as="geometry">
                        <mxPoint x="930.0004347826087" y="300" as="sourcePoint"/>
                        <mxPoint x="1032.174347826087" y="200" as="targetPoint"/>
                    </mxGeometry>
                </mxCell>
                <mxCell id="315" value="" style="shape=flexArrow;endArrow=classic;html=1;strokeColor=#000000;sketch=1;curveFitting=1;jiggle=2;startArrow=none;" parent="1" source="319" target="98" edge="1">
                    <mxGeometry width="50" height="50" relative="1" as="geometry">
                        <mxPoint x="514.1304347826087" y="300" as="sourcePoint"/>
                        <mxPoint x="616.304347826087" y="200" as="targetPoint"/>
                    </mxGeometry>
                </mxCell>
                <mxCell id="320" value="MPD O'World" style="text;html=1;strokeColor=none;fillColor=none;align=center;verticalAlign=middle;whiteSpace=wrap;rounded=0;fontColor=#000000;fontSize=23;fontStyle=1;fontFamily=Architects Daughter;fontSource=https%3A%2F%2Ffonts.googleapis.com%2Fcss%3Ffamily%3DArchitects%2BDaughter;" parent="1" vertex="1">
                    <mxGeometry x="510" y="10" width="280" height="30" as="geometry"/>
                </mxCell>
                <mxCell id="321" value="" style="shape=flexArrow;endArrow=none;html=1;strokeColor=#000000;sketch=1;curveFitting=1;jiggle=2;" parent="1" source="271" target="316" edge="1">
                    <mxGeometry width="50" height="50" relative="1" as="geometry">
                        <mxPoint x="385" y="158.8671875" as="sourcePoint"/>
                        <mxPoint x="670" y="181.1328125" as="targetPoint"/>
                    </mxGeometry>
                </mxCell>
                <mxCell id="316" value="Role_user 1,n" style="text;html=1;strokeColor=none;fillColor=none;align=center;verticalAlign=middle;whiteSpace=wrap;rounded=0;fontColor=#000000;" parent="1" vertex="1">
                    <mxGeometry x="580" y="120" width="60" height="30" as="geometry"/>
                </mxCell>
                <mxCell id="322" value="" style="shape=flexArrow;endArrow=none;html=1;strokeColor=#000000;sketch=1;curveFitting=1;jiggle=2;" parent="1" source="271" target="317" edge="1">
                    <mxGeometry width="50" height="50" relative="1" as="geometry">
                        <mxPoint x="199.16666666666674" y="220" as="sourcePoint"/>
                        <mxPoint x="173.6111111111111" y="450" as="targetPoint"/>
                    </mxGeometry>
                </mxCell>
                <mxCell id="317" value="Role_user 1,n" style="text;html=1;strokeColor=none;fillColor=none;align=center;verticalAlign=middle;whiteSpace=wrap;rounded=0;fontColor=#000000;" parent="1" vertex="1">
                    <mxGeometry x="215" y="240" width="60" height="30" as="geometry"/>
                </mxCell>
                <mxCell id="323" value="" style="shape=flexArrow;endArrow=none;html=1;strokeColor=#000000;sketch=1;curveFitting=1;jiggle=2;" parent="1" source="299" target="319" edge="1">
                    <mxGeometry width="50" height="50" relative="1" as="geometry">
                        <mxPoint x="201.141304347826" y="560" as="sourcePoint"/>
                        <mxPoint x="182.66304347826076" y="460" as="targetPoint"/>
                    </mxGeometry>
                </mxCell>
                <mxCell id="319" value="authorisation_role 1,n" style="text;html=1;strokeColor=none;fillColor=none;align=center;verticalAlign=middle;whiteSpace=wrap;rounded=0;fontColor=#000000;" parent="1" vertex="1">
                    <mxGeometry x="260" y="480" width="60" height="30" as="geometry"/>
                </mxCell>
                <mxCell id="324" value="" style="shape=flexArrow;endArrow=none;html=1;strokeColor=#000000;sketch=1;curveFitting=1;jiggle=2;" parent="1" source="299" target="318" edge="1">
                    <mxGeometry width="50" height="50" relative="1" as="geometry">
                        <mxPoint x="206.8269230769231" y="710" as="sourcePoint"/>
                        <mxPoint x="178.49358974358984" y="970" as="targetPoint"/>
                    </mxGeometry>
                </mxCell>
                <mxCell id="318" value="authorisation_role 1,n" style="text;html=1;strokeColor=none;fillColor=none;align=center;verticalAlign=middle;whiteSpace=wrap;rounded=0;fontColor=#000000;" parent="1" vertex="1">
                    <mxGeometry x="280" y="740" width="60" height="30" as="geometry"/>
                </mxCell>
                <mxCell id="338" value="COUNTRY" style="shape=table;startSize=30;container=1;collapsible=0;childLayout=tableLayout;fontStyle=1;align=center;sketch=1;hachureGap=4;jiggle=2;curveFitting=1;fontFamily=Architects Daughter;fontSource=https%3A%2F%2Ffonts.googleapis.com%2Fcss%3Ffamily%3DArchitects%2BDaughter;fontSize=20;strokeColor=#000000;fillColor=#F0F0F0;fontColor=#000000;" parent="1" vertex="1">
                    <mxGeometry x="605" y="770" width="493" height="190" as="geometry"/>
                </mxCell>
                <mxCell id="339" value="" style="shape=tableRow;horizontal=0;startSize=0;swimlaneHead=0;swimlaneBody=0;top=0;left=0;bottom=0;right=0;collapsible=0;dropTarget=0;fillColor=none;points=[[0,0.5],[1,0.5]];portConstraint=eastwest;sketch=1;hachureGap=4;jiggle=2;curveFitting=1;fontFamily=Architects Daughter;fontSource=https%3A%2F%2Ffonts.googleapis.com%2Fcss%3Ffamily%3DArchitects%2BDaughter;fontSize=20;" parent="338" vertex="1">
                    <mxGeometry y="30" width="493" height="40" as="geometry"/>
                </mxCell>
                <mxCell id="340" value="&lt;span style=&quot;&quot;&gt;id&lt;/span&gt;" style="shape=partialRectangle;html=1;whiteSpace=wrap;connectable=0;fillColor=none;top=0;left=0;bottom=0;right=0;overflow=hidden;sketch=1;hachureGap=4;jiggle=2;curveFitting=1;fontFamily=Architects Daughter;fontSource=https%3A%2F%2Ffonts.googleapis.com%2Fcss%3Ffamily%3DArchitects%2BDaughter;fontSize=20;fontStyle=4;fontColor=#000000;" parent="339" vertex="1">
                    <mxGeometry width="123" height="40" as="geometry">
                        <mxRectangle width="123" height="40" as="alternateBounds"/>
                    </mxGeometry>
                </mxCell>
                <mxCell id="341" value="&lt;span style=&quot;color: rgb(0, 0, 0);&quot;&gt;INT&lt;/span&gt;" style="shape=partialRectangle;html=1;whiteSpace=wrap;connectable=0;fillColor=none;top=0;left=0;bottom=0;right=0;overflow=hidden;sketch=1;hachureGap=4;jiggle=2;curveFitting=1;fontFamily=Architects Daughter;fontSource=https%3A%2F%2Ffonts.googleapis.com%2Fcss%3Ffamily%3DArchitects%2BDaughter;fontSize=20;" parent="339" vertex="1">
                    <mxGeometry x="123" width="102" height="40" as="geometry">
                        <mxRectangle width="102" height="40" as="alternateBounds"/>
                    </mxGeometry>
                </mxCell>
                <mxCell id="342" value="&lt;span style=&quot;color: rgb(0, 0, 0); font-size: 18px;&quot;&gt;UNIQUE NOT NULL&lt;/span&gt;" style="shape=partialRectangle;html=1;whiteSpace=wrap;connectable=0;fillColor=none;top=0;left=0;bottom=0;right=0;overflow=hidden;sketch=1;hachureGap=4;jiggle=2;curveFitting=1;fontFamily=Architects Daughter;fontSource=https%3A%2F%2Ffonts.googleapis.com%2Fcss%3Ffamily%3DArchitects%2BDaughter;fontSize=20;" parent="339" vertex="1">
                    <mxGeometry x="225" width="170" height="40" as="geometry">
                        <mxRectangle width="170" height="40" as="alternateBounds"/>
                    </mxGeometry>
                </mxCell>
                <mxCell id="409" value="&lt;span style=&quot;color: rgb(0, 0, 0);&quot;&gt;PK&lt;/span&gt;" style="shape=partialRectangle;html=1;whiteSpace=wrap;connectable=0;fillColor=none;top=0;left=0;bottom=0;right=0;overflow=hidden;sketch=1;hachureGap=4;jiggle=2;curveFitting=1;fontFamily=Architects Daughter;fontSource=https%3A%2F%2Ffonts.googleapis.com%2Fcss%3Ffamily%3DArchitects%2BDaughter;fontSize=20;" vertex="1" parent="339">
                    <mxGeometry x="395" width="98" height="40" as="geometry">
                        <mxRectangle width="98" height="40" as="alternateBounds"/>
                    </mxGeometry>
                </mxCell>
                <mxCell id="343" value="" style="shape=tableRow;horizontal=0;startSize=0;swimlaneHead=0;swimlaneBody=0;top=0;left=0;bottom=0;right=0;collapsible=0;dropTarget=0;fillColor=none;points=[[0,0.5],[1,0.5]];portConstraint=eastwest;sketch=1;hachureGap=4;jiggle=2;curveFitting=1;fontFamily=Architects Daughter;fontSource=https%3A%2F%2Ffonts.googleapis.com%2Fcss%3Ffamily%3DArchitects%2BDaughter;fontSize=20;" parent="338" vertex="1">
                    <mxGeometry y="70" width="493" height="40" as="geometry"/>
                </mxCell>
                <mxCell id="344" value="&lt;font color=&quot;#000000&quot;&gt;name&lt;/font&gt;" style="shape=partialRectangle;html=1;whiteSpace=wrap;connectable=0;fillColor=none;top=0;left=0;bottom=0;right=0;overflow=hidden;sketch=1;hachureGap=4;jiggle=2;curveFitting=1;fontFamily=Architects Daughter;fontSource=https%3A%2F%2Ffonts.googleapis.com%2Fcss%3Ffamily%3DArchitects%2BDaughter;fontSize=20;" parent="343" vertex="1">
                    <mxGeometry width="123" height="40" as="geometry">
                        <mxRectangle width="123" height="40" as="alternateBounds"/>
                    </mxGeometry>
                </mxCell>
                <mxCell id="345" value="&lt;span style=&quot;color: rgb(0, 0, 0);&quot;&gt;TEXT&lt;/span&gt;" style="shape=partialRectangle;html=1;whiteSpace=wrap;connectable=0;fillColor=none;top=0;left=0;bottom=0;right=0;overflow=hidden;sketch=1;hachureGap=4;jiggle=2;curveFitting=1;fontFamily=Architects Daughter;fontSource=https%3A%2F%2Ffonts.googleapis.com%2Fcss%3Ffamily%3DArchitects%2BDaughter;fontSize=20;" parent="343" vertex="1">
                    <mxGeometry x="123" width="102" height="40" as="geometry">
                        <mxRectangle width="102" height="40" as="alternateBounds"/>
                    </mxGeometry>
                </mxCell>
                <mxCell id="346" value="&lt;span style=&quot;color: rgb(0, 0, 0); font-size: 18px;&quot;&gt;UNIQUE NOT NULL&lt;/span&gt;" style="shape=partialRectangle;html=1;whiteSpace=wrap;connectable=0;fillColor=none;top=0;left=0;bottom=0;right=0;overflow=hidden;sketch=1;hachureGap=4;jiggle=2;curveFitting=1;fontFamily=Architects Daughter;fontSource=https%3A%2F%2Ffonts.googleapis.com%2Fcss%3Ffamily%3DArchitects%2BDaughter;fontSize=20;" parent="343" vertex="1">
                    <mxGeometry x="225" width="170" height="40" as="geometry">
                        <mxRectangle width="170" height="40" as="alternateBounds"/>
                    </mxGeometry>
                </mxCell>
                <mxCell id="410" style="shape=partialRectangle;html=1;whiteSpace=wrap;connectable=0;fillColor=none;top=0;left=0;bottom=0;right=0;overflow=hidden;sketch=1;hachureGap=4;jiggle=2;curveFitting=1;fontFamily=Architects Daughter;fontSource=https%3A%2F%2Ffonts.googleapis.com%2Fcss%3Ffamily%3DArchitects%2BDaughter;fontSize=20;" vertex="1" parent="343">
                    <mxGeometry x="395" width="98" height="40" as="geometry">
                        <mxRectangle width="98" height="40" as="alternateBounds"/>
                    </mxGeometry>
                </mxCell>
                <mxCell id="347" style="shape=tableRow;horizontal=0;startSize=0;swimlaneHead=0;swimlaneBody=0;top=0;left=0;bottom=0;right=0;collapsible=0;dropTarget=0;fillColor=none;points=[[0,0.5],[1,0.5]];portConstraint=eastwest;sketch=1;hachureGap=4;jiggle=2;curveFitting=1;fontFamily=Architects Daughter;fontSource=https%3A%2F%2Ffonts.googleapis.com%2Fcss%3Ffamily%3DArchitects%2BDaughter;fontSize=20;" parent="338" vertex="1">
                    <mxGeometry y="110" width="493" height="40" as="geometry"/>
                </mxCell>
                <mxCell id="348" value="&lt;font color=&quot;#000000&quot;&gt;ISO2&lt;/font&gt;" style="shape=partialRectangle;html=1;whiteSpace=wrap;connectable=0;fillColor=none;top=0;left=0;bottom=0;right=0;overflow=hidden;sketch=1;hachureGap=4;jiggle=2;curveFitting=1;fontFamily=Architects Daughter;fontSource=https%3A%2F%2Ffonts.googleapis.com%2Fcss%3Ffamily%3DArchitects%2BDaughter;fontSize=20;" parent="347" vertex="1">
                    <mxGeometry width="123" height="40" as="geometry">
                        <mxRectangle width="123" height="40" as="alternateBounds"/>
                    </mxGeometry>
                </mxCell>
                <mxCell id="349" value="&lt;span style=&quot;color: rgb(0, 0, 0);&quot;&gt;INT&lt;/span&gt;" style="shape=partialRectangle;html=1;whiteSpace=wrap;connectable=0;fillColor=none;top=0;left=0;bottom=0;right=0;overflow=hidden;sketch=1;hachureGap=4;jiggle=2;curveFitting=1;fontFamily=Architects Daughter;fontSource=https%3A%2F%2Ffonts.googleapis.com%2Fcss%3Ffamily%3DArchitects%2BDaughter;fontSize=20;" parent="347" vertex="1">
                    <mxGeometry x="123" width="102" height="40" as="geometry">
                        <mxRectangle width="102" height="40" as="alternateBounds"/>
                    </mxGeometry>
                </mxCell>
                <mxCell id="350" value="&lt;span style=&quot;color: rgb(0, 0, 0); font-size: 18px;&quot;&gt;UNIQUE NOT NULL&lt;/span&gt;" style="shape=partialRectangle;html=1;whiteSpace=wrap;connectable=0;fillColor=none;top=0;left=0;bottom=0;right=0;overflow=hidden;sketch=1;hachureGap=4;jiggle=2;curveFitting=1;fontFamily=Architects Daughter;fontSource=https%3A%2F%2Ffonts.googleapis.com%2Fcss%3Ffamily%3DArchitects%2BDaughter;fontSize=20;" parent="347" vertex="1">
                    <mxGeometry x="225" width="170" height="40" as="geometry">
                        <mxRectangle width="170" height="40" as="alternateBounds"/>
                    </mxGeometry>
                </mxCell>
                <mxCell id="411" style="shape=partialRectangle;html=1;whiteSpace=wrap;connectable=0;fillColor=none;top=0;left=0;bottom=0;right=0;overflow=hidden;sketch=1;hachureGap=4;jiggle=2;curveFitting=1;fontFamily=Architects Daughter;fontSource=https%3A%2F%2Ffonts.googleapis.com%2Fcss%3Ffamily%3DArchitects%2BDaughter;fontSize=20;" vertex="1" parent="347">
                    <mxGeometry x="395" width="98" height="40" as="geometry">
                        <mxRectangle width="98" height="40" as="alternateBounds"/>
                    </mxGeometry>
                </mxCell>
                <mxCell id="412" style="shape=tableRow;horizontal=0;startSize=0;swimlaneHead=0;swimlaneBody=0;top=0;left=0;bottom=0;right=0;collapsible=0;dropTarget=0;fillColor=none;points=[[0,0.5],[1,0.5]];portConstraint=eastwest;sketch=1;hachureGap=4;jiggle=2;curveFitting=1;fontFamily=Architects Daughter;fontSource=https%3A%2F%2Ffonts.googleapis.com%2Fcss%3Ffamily%3DArchitects%2BDaughter;fontSize=20;" vertex="1" parent="338">
                    <mxGeometry y="150" width="493" height="40" as="geometry"/>
                </mxCell>
                <mxCell id="413" value="&lt;span style=&quot;color: rgb(0, 0, 0);&quot;&gt;ISO3&lt;/span&gt;" style="shape=partialRectangle;html=1;whiteSpace=wrap;connectable=0;fillColor=none;top=0;left=0;bottom=0;right=0;overflow=hidden;sketch=1;hachureGap=4;jiggle=2;curveFitting=1;fontFamily=Architects Daughter;fontSource=https%3A%2F%2Ffonts.googleapis.com%2Fcss%3Ffamily%3DArchitects%2BDaughter;fontSize=20;" vertex="1" parent="412">
                    <mxGeometry width="123" height="40" as="geometry">
                        <mxRectangle width="123" height="40" as="alternateBounds"/>
                    </mxGeometry>
                </mxCell>
                <mxCell id="414" value="&lt;span style=&quot;color: rgb(0, 0, 0);&quot;&gt;INT&lt;/span&gt;" style="shape=partialRectangle;html=1;whiteSpace=wrap;connectable=0;fillColor=none;top=0;left=0;bottom=0;right=0;overflow=hidden;sketch=1;hachureGap=4;jiggle=2;curveFitting=1;fontFamily=Architects Daughter;fontSource=https%3A%2F%2Ffonts.googleapis.com%2Fcss%3Ffamily%3DArchitects%2BDaughter;fontSize=20;" vertex="1" parent="412">
                    <mxGeometry x="123" width="102" height="40" as="geometry">
                        <mxRectangle width="102" height="40" as="alternateBounds"/>
                    </mxGeometry>
                </mxCell>
                <mxCell id="415" value="&lt;span style=&quot;color: rgb(0, 0, 0); font-size: 18px;&quot;&gt;UNIQUE NOT NULL&lt;/span&gt;" style="shape=partialRectangle;html=1;whiteSpace=wrap;connectable=0;fillColor=none;top=0;left=0;bottom=0;right=0;overflow=hidden;sketch=1;hachureGap=4;jiggle=2;curveFitting=1;fontFamily=Architects Daughter;fontSource=https%3A%2F%2Ffonts.googleapis.com%2Fcss%3Ffamily%3DArchitects%2BDaughter;fontSize=20;" vertex="1" parent="412">
                    <mxGeometry x="225" width="170" height="40" as="geometry">
                        <mxRectangle width="170" height="40" as="alternateBounds"/>
                    </mxGeometry>
                </mxCell>
                <mxCell id="416" style="shape=partialRectangle;html=1;whiteSpace=wrap;connectable=0;fillColor=none;top=0;left=0;bottom=0;right=0;overflow=hidden;sketch=1;hachureGap=4;jiggle=2;curveFitting=1;fontFamily=Architects Daughter;fontSource=https%3A%2F%2Ffonts.googleapis.com%2Fcss%3Ffamily%3DArchitects%2BDaughter;fontSize=20;" vertex="1" parent="412">
                    <mxGeometry x="395" width="98" height="40" as="geometry">
                        <mxRectangle width="98" height="40" as="alternateBounds"/>
                    </mxGeometry>
                </mxCell>
                <mxCell id="351" value="USER_HAS_FAVORITE" style="shape=table;startSize=30;container=1;collapsible=0;childLayout=tableLayout;fontStyle=1;align=center;sketch=1;hachureGap=4;jiggle=2;curveFitting=1;fontFamily=Architects Daughter;fontSource=https%3A%2F%2Ffonts.googleapis.com%2Fcss%3Ffamily%3DArchitects%2BDaughter;fontSize=20;strokeColor=#000000;fillColor=#F0F0F0;fontColor=#000000;" parent="1" vertex="1">
                    <mxGeometry x="930" y="470" width="530" height="150" as="geometry"/>
                </mxCell>
                <mxCell id="352" value="" style="shape=tableRow;horizontal=0;startSize=0;swimlaneHead=0;swimlaneBody=0;top=0;left=0;bottom=0;right=0;collapsible=0;dropTarget=0;fillColor=none;points=[[0,0.5],[1,0.5]];portConstraint=eastwest;sketch=1;hachureGap=4;jiggle=2;curveFitting=1;fontFamily=Architects Daughter;fontSource=https%3A%2F%2Ffonts.googleapis.com%2Fcss%3Ffamily%3DArchitects%2BDaughter;fontSize=20;" parent="351" vertex="1">
                    <mxGeometry y="30" width="530" height="40" as="geometry"/>
                </mxCell>
                <mxCell id="353" value="&lt;span style=&quot;&quot;&gt;id&lt;/span&gt;" style="shape=partialRectangle;html=1;whiteSpace=wrap;connectable=0;fillColor=none;top=0;left=0;bottom=0;right=0;overflow=hidden;sketch=1;hachureGap=4;jiggle=2;curveFitting=1;fontFamily=Architects Daughter;fontSource=https%3A%2F%2Ffonts.googleapis.com%2Fcss%3Ffamily%3DArchitects%2BDaughter;fontSize=20;fontStyle=4;fontColor=#000000;" parent="352" vertex="1">
                    <mxGeometry width="123" height="40" as="geometry">
                        <mxRectangle width="123" height="40" as="alternateBounds"/>
                    </mxGeometry>
                </mxCell>
                <mxCell id="354" value="&lt;span style=&quot;color: rgb(0, 0, 0);&quot;&gt;INT&lt;/span&gt;" style="shape=partialRectangle;html=1;whiteSpace=wrap;connectable=0;fillColor=none;top=0;left=0;bottom=0;right=0;overflow=hidden;sketch=1;hachureGap=4;jiggle=2;curveFitting=1;fontFamily=Architects Daughter;fontSource=https%3A%2F%2Ffonts.googleapis.com%2Fcss%3Ffamily%3DArchitects%2BDaughter;fontSize=20;" parent="352" vertex="1">
                    <mxGeometry x="123" width="124" height="40" as="geometry">
                        <mxRectangle width="124" height="40" as="alternateBounds"/>
                    </mxGeometry>
                </mxCell>
                <mxCell id="355" value="&lt;span style=&quot;color: rgb(0, 0, 0); font-size: 18px;&quot;&gt;UNIQUE NOT NULL&lt;/span&gt;" style="shape=partialRectangle;html=1;whiteSpace=wrap;connectable=0;fillColor=none;top=0;left=0;bottom=0;right=0;overflow=hidden;sketch=1;hachureGap=4;jiggle=2;curveFitting=1;fontFamily=Architects Daughter;fontSource=https%3A%2F%2Ffonts.googleapis.com%2Fcss%3Ffamily%3DArchitects%2BDaughter;fontSize=20;" parent="352" vertex="1">
                    <mxGeometry x="247" width="163" height="40" as="geometry">
                        <mxRectangle width="163" height="40" as="alternateBounds"/>
                    </mxGeometry>
                </mxCell>
                <mxCell id="406" value="&lt;span style=&quot;color: rgb(0, 0, 0);&quot;&gt;PK&lt;/span&gt;" style="shape=partialRectangle;html=1;whiteSpace=wrap;connectable=0;fillColor=none;top=0;left=0;bottom=0;right=0;overflow=hidden;sketch=1;hachureGap=4;jiggle=2;curveFitting=1;fontFamily=Architects Daughter;fontSource=https%3A%2F%2Ffonts.googleapis.com%2Fcss%3Ffamily%3DArchitects%2BDaughter;fontSize=20;" vertex="1" parent="352">
                    <mxGeometry x="410" width="120" height="40" as="geometry">
                        <mxRectangle width="120" height="40" as="alternateBounds"/>
                    </mxGeometry>
                </mxCell>
                <mxCell id="356" value="" style="shape=tableRow;horizontal=0;startSize=0;swimlaneHead=0;swimlaneBody=0;top=0;left=0;bottom=0;right=0;collapsible=0;dropTarget=0;fillColor=none;points=[[0,0.5],[1,0.5]];portConstraint=eastwest;sketch=1;hachureGap=4;jiggle=2;curveFitting=1;fontFamily=Architects Daughter;fontSource=https%3A%2F%2Ffonts.googleapis.com%2Fcss%3Ffamily%3DArchitects%2BDaughter;fontSize=20;" parent="351" vertex="1">
                    <mxGeometry y="70" width="530" height="40" as="geometry"/>
                </mxCell>
                <mxCell id="357" value="&lt;font color=&quot;#000000&quot;&gt;user_id&lt;/font&gt;" style="shape=partialRectangle;html=1;whiteSpace=wrap;connectable=0;fillColor=none;top=0;left=0;bottom=0;right=0;overflow=hidden;sketch=1;hachureGap=4;jiggle=2;curveFitting=1;fontFamily=Architects Daughter;fontSource=https%3A%2F%2Ffonts.googleapis.com%2Fcss%3Ffamily%3DArchitects%2BDaughter;fontSize=20;" parent="356" vertex="1">
                    <mxGeometry width="123" height="40" as="geometry">
                        <mxRectangle width="123" height="40" as="alternateBounds"/>
                    </mxGeometry>
                </mxCell>
                <mxCell id="358" value="&lt;span style=&quot;color: rgb(0, 0, 0);&quot;&gt;INT&lt;/span&gt;" style="shape=partialRectangle;html=1;whiteSpace=wrap;connectable=0;fillColor=none;top=0;left=0;bottom=0;right=0;overflow=hidden;sketch=1;hachureGap=4;jiggle=2;curveFitting=1;fontFamily=Architects Daughter;fontSource=https%3A%2F%2Ffonts.googleapis.com%2Fcss%3Ffamily%3DArchitects%2BDaughter;fontSize=20;" parent="356" vertex="1">
                    <mxGeometry x="123" width="124" height="40" as="geometry">
                        <mxRectangle width="124" height="40" as="alternateBounds"/>
                    </mxGeometry>
                </mxCell>
                <mxCell id="359" value="&lt;span style=&quot;color: rgb(0, 0, 0);&quot;&gt;NOT NULL&lt;/span&gt;" style="shape=partialRectangle;html=1;whiteSpace=wrap;connectable=0;fillColor=none;top=0;left=0;bottom=0;right=0;overflow=hidden;sketch=1;hachureGap=4;jiggle=2;curveFitting=1;fontFamily=Architects Daughter;fontSource=https%3A%2F%2Ffonts.googleapis.com%2Fcss%3Ffamily%3DArchitects%2BDaughter;fontSize=20;" parent="356" vertex="1">
                    <mxGeometry x="247" width="163" height="40" as="geometry">
                        <mxRectangle width="163" height="40" as="alternateBounds"/>
                    </mxGeometry>
                </mxCell>
                <mxCell id="407" value="&lt;span style=&quot;color: rgb(0, 0, 0);&quot;&gt;FK&lt;/span&gt;" style="shape=partialRectangle;html=1;whiteSpace=wrap;connectable=0;fillColor=none;top=0;left=0;bottom=0;right=0;overflow=hidden;sketch=1;hachureGap=4;jiggle=2;curveFitting=1;fontFamily=Architects Daughter;fontSource=https%3A%2F%2Ffonts.googleapis.com%2Fcss%3Ffamily%3DArchitects%2BDaughter;fontSize=20;" vertex="1" parent="356">
                    <mxGeometry x="410" width="120" height="40" as="geometry">
                        <mxRectangle width="120" height="40" as="alternateBounds"/>
                    </mxGeometry>
                </mxCell>
                <mxCell id="360" style="shape=tableRow;horizontal=0;startSize=0;swimlaneHead=0;swimlaneBody=0;top=0;left=0;bottom=0;right=0;collapsible=0;dropTarget=0;fillColor=none;points=[[0,0.5],[1,0.5]];portConstraint=eastwest;sketch=1;hachureGap=4;jiggle=2;curveFitting=1;fontFamily=Architects Daughter;fontSource=https%3A%2F%2Ffonts.googleapis.com%2Fcss%3Ffamily%3DArchitects%2BDaughter;fontSize=20;" parent="351" vertex="1">
                    <mxGeometry y="110" width="530" height="40" as="geometry"/>
                </mxCell>
                <mxCell id="361" value="&lt;font color=&quot;#000000&quot;&gt;country_id&lt;/font&gt;" style="shape=partialRectangle;html=1;whiteSpace=wrap;connectable=0;fillColor=none;top=0;left=0;bottom=0;right=0;overflow=hidden;sketch=1;hachureGap=4;jiggle=2;curveFitting=1;fontFamily=Architects Daughter;fontSource=https%3A%2F%2Ffonts.googleapis.com%2Fcss%3Ffamily%3DArchitects%2BDaughter;fontSize=20;" parent="360" vertex="1">
                    <mxGeometry width="123" height="40" as="geometry">
                        <mxRectangle width="123" height="40" as="alternateBounds"/>
                    </mxGeometry>
                </mxCell>
                <mxCell id="362" value="&lt;span style=&quot;color: rgb(0, 0, 0);&quot;&gt;INT&lt;/span&gt;" style="shape=partialRectangle;html=1;whiteSpace=wrap;connectable=0;fillColor=none;top=0;left=0;bottom=0;right=0;overflow=hidden;sketch=1;hachureGap=4;jiggle=2;curveFitting=1;fontFamily=Architects Daughter;fontSource=https%3A%2F%2Ffonts.googleapis.com%2Fcss%3Ffamily%3DArchitects%2BDaughter;fontSize=20;" parent="360" vertex="1">
                    <mxGeometry x="123" width="124" height="40" as="geometry">
                        <mxRectangle width="124" height="40" as="alternateBounds"/>
                    </mxGeometry>
                </mxCell>
                <mxCell id="363" value="&lt;span style=&quot;color: rgb(0, 0, 0);&quot;&gt;NOT NULL&lt;/span&gt;" style="shape=partialRectangle;html=1;whiteSpace=wrap;connectable=0;fillColor=none;top=0;left=0;bottom=0;right=0;overflow=hidden;sketch=1;hachureGap=4;jiggle=2;curveFitting=1;fontFamily=Architects Daughter;fontSource=https%3A%2F%2Ffonts.googleapis.com%2Fcss%3Ffamily%3DArchitects%2BDaughter;fontSize=20;" parent="360" vertex="1">
                    <mxGeometry x="247" width="163" height="40" as="geometry">
                        <mxRectangle width="163" height="40" as="alternateBounds"/>
                    </mxGeometry>
                </mxCell>
                <mxCell id="408" value="&lt;span style=&quot;color: rgb(0, 0, 0);&quot;&gt;FK&lt;/span&gt;" style="shape=partialRectangle;html=1;whiteSpace=wrap;connectable=0;fillColor=none;top=0;left=0;bottom=0;right=0;overflow=hidden;sketch=1;hachureGap=4;jiggle=2;curveFitting=1;fontFamily=Architects Daughter;fontSource=https%3A%2F%2Ffonts.googleapis.com%2Fcss%3Ffamily%3DArchitects%2BDaughter;fontSize=20;" vertex="1" parent="360">
                    <mxGeometry x="410" width="120" height="40" as="geometry">
                        <mxRectangle width="120" height="40" as="alternateBounds"/>
                    </mxGeometry>
                </mxCell>
                <mxCell id="372" value="" style="shape=flexArrow;endArrow=classic;html=1;strokeColor=#000000;sketch=1;curveFitting=1;jiggle=2;startArrow=none;" parent="1" source="385" target="115" edge="1">
                    <mxGeometry width="50" height="50" relative="1" as="geometry">
                        <mxPoint x="1110" y="390" as="sourcePoint"/>
                        <mxPoint x="910" y="370" as="targetPoint"/>
                    </mxGeometry>
                </mxCell>
                <mxCell id="375" value="" style="shape=flexArrow;endArrow=classic;html=1;strokeColor=#000000;sketch=1;curveFitting=1;jiggle=2;startArrow=none;" parent="1" source="388" target="338" edge="1">
                    <mxGeometry width="50" height="50" relative="1" as="geometry">
                        <mxPoint x="827.2221126760566" y="414" as="sourcePoint"/>
                        <mxPoint x="902.7854929577467" y="488" as="targetPoint"/>
                    </mxGeometry>
                </mxCell>
                <mxCell id="380" value="" style="shape=flexArrow;endArrow=classic;html=1;strokeColor=#000000;sketch=1;curveFitting=1;jiggle=2;startArrow=none;" parent="1" source="384" target="338" edge="1">
                    <mxGeometry width="50" height="50" relative="1" as="geometry">
                        <mxPoint x="1040" y="700" as="sourcePoint"/>
                        <mxPoint x="1150" y="850" as="targetPoint"/>
                    </mxGeometry>
                </mxCell>
                <mxCell id="386" value="" style="shape=flexArrow;endArrow=none;html=1;strokeColor=#000000;sketch=1;curveFitting=1;jiggle=2;startArrow=none;" parent="1" source="351" target="385" edge="1">
                    <mxGeometry width="50" height="50" relative="1" as="geometry">
                        <mxPoint x="1096.2162162162167" y="500" as="sourcePoint"/>
                        <mxPoint x="970.8108108108108" y="340" as="targetPoint"/>
                    </mxGeometry>
                </mxCell>
                <mxCell id="385" value="User_favorite&lt;br&gt;0,n" style="text;html=1;strokeColor=none;fillColor=none;align=center;verticalAlign=middle;whiteSpace=wrap;rounded=0;fontColor=#000000;" parent="1" vertex="1">
                    <mxGeometry x="1109" y="384" width="60" height="30" as="geometry"/>
                </mxCell>
                <mxCell id="387" value="" style="shape=flexArrow;endArrow=none;html=1;strokeColor=#000000;sketch=1;curveFitting=1;jiggle=2;startArrow=none;" parent="1" source="351" target="384" edge="1">
                    <mxGeometry width="50" height="50" relative="1" as="geometry">
                        <mxPoint x="1088.8235294117649" y="650" as="sourcePoint"/>
                        <mxPoint x="921.1764705882356" y="840.0000000000002" as="targetPoint"/>
                    </mxGeometry>
                </mxCell>
                <mxCell id="384" value="User_favorite 0,n" style="text;html=1;strokeColor=none;fillColor=none;align=center;verticalAlign=middle;whiteSpace=wrap;rounded=0;fontColor=#000000;" parent="1" vertex="1">
                    <mxGeometry x="990" y="680" width="60" height="30" as="geometry"/>
                </mxCell>
                <mxCell id="389" value="" style="shape=flexArrow;endArrow=none;html=1;strokeColor=#000000;sketch=1;curveFitting=1;jiggle=2;startArrow=none;" parent="1" source="115" target="388" edge="1">
                    <mxGeometry width="50" height="50" relative="1" as="geometry">
                        <mxPoint x="863.0985915492959" y="340" as="sourcePoint"/>
                        <mxPoint x="856.056338028169" y="840" as="targetPoint"/>
                    </mxGeometry>
                </mxCell>
                <mxCell id="388" value="User_origin 1,1" style="text;html=1;strokeColor=none;fillColor=none;align=center;verticalAlign=middle;whiteSpace=wrap;rounded=0;fontColor=#000000;" parent="1" vertex="1">
                    <mxGeometry x="760" y="450" width="60" height="30" as="geometry"/>
                </mxCell>
            </root>
        </mxGraphModel>
    </diagram>
</mxfile>